<?xml version="1.0" encoding="utf-8"?>
<!-- Generator: Adobe Illustrator 16.0.0, SVG Export Plug-In . SVG Version: 6.00 Build 0)  -->
<!DOCTYPE svg PUBLIC "-//W3C//DTD SVG 1.1//EN" "http://www.w3.org/Graphics/SVG/1.1/DTD/svg11.dtd">
<svg version="1.1" id="Capa_1" xmlns="http://www.w3.org/2000/svg" xmlns:xlink="http://www.w3.org/1999/xlink" x="0px" y="0px"
	 width="24px" height="24px" viewBox="8 0.857 24 24" enable-background="new 8 0.857 24 24" xml:space="preserve">
<g>
	<g id="Menu_1_">
		<path d="M10.625,7.679h18.75C29.72,7.679,30,7.399,30,7.054c0-0.345-0.28-0.625-0.625-0.625h-18.75C10.28,6.429,10,6.709,10,7.054
			C10,7.399,10.28,7.679,10.625,7.679z"/>
		<path d="M29.375,12.232h-18.75c-0.345,0-0.625,0.28-0.625,0.625s0.28,0.625,0.625,0.625h18.75c0.345,0,0.625-0.28,0.625-0.625
			S29.72,12.232,29.375,12.232z"/>
		<path d="M29.375,18.036h-12.5c-0.345,0-0.625,0.28-0.625,0.625c0,0.345,0.28,0.625,0.625,0.625h12.5
			c0.345,0,0.625-0.28,0.625-0.625C30,18.316,29.72,18.036,29.375,18.036z"/>
	</g>
</g>
</svg>
