<?xml version="1.0" encoding="utf-8"?>
<!-- Generator: Adobe Illustrator 16.0.0, SVG Export Plug-In . SVG Version: 6.00 Build 0)  -->
<!DOCTYPE svg PUBLIC "-//W3C//DTD SVG 1.1//EN" "http://www.w3.org/Graphics/SVG/1.1/DTD/svg11.dtd">
<svg version="1.1" id="Capa_1" xmlns="http://www.w3.org/2000/svg" xmlns:xlink="http://www.w3.org/1999/xlink" x="0px" y="0px"
	 width="24px" height="24px" viewBox="164.31 164.31 24 24" enable-background="new 164.31 164.31 24 24" xml:space="preserve">
<g>
	<path fill="#58595B" d="M185.437,167.611c-0.902-0.486-1.91,0.451-2.5,1.006c-1.354,1.319-2.499,2.846-3.783,4.235
		c-1.424,1.527-2.743,3.055-4.201,4.547c-0.833,0.833-1.736,1.735-2.291,2.777c-1.25-1.215-2.326-2.534-3.714-3.61
		c-1.007-0.764-2.673-1.319-2.638,0.521c0.069,2.396,2.187,4.964,3.749,6.596c0.66,0.694,1.527,1.423,2.534,1.458
		c1.215,0.069,2.464-1.389,3.193-2.188c1.285-1.388,2.326-2.95,3.506-4.373c1.527-1.875,3.089-3.715,4.582-5.624
		C184.812,171.776,187.762,168.861,185.437,167.611z"/>
</g>
</svg>
