<?xml version="1.0" encoding="utf-8"?>
<!-- Generator: Adobe Illustrator 16.0.0, SVG Export Plug-In . SVG Version: 6.00 Build 0)  -->
<!DOCTYPE svg PUBLIC "-//W3C//DTD SVG 1.1//EN" "http://www.w3.org/Graphics/SVG/1.1/DTD/svg11.dtd">
<svg version="1.1" id="Layer_1" xmlns="http://www.w3.org/2000/svg" xmlns:xlink="http://www.w3.org/1999/xlink" x="0px" y="0px"
	 width="24px" height="24px" viewBox="0 0 24 24" enable-background="new 0 0 24 24" xml:space="preserve">
<g>
	<path fill="#FFFFFF" d="M12,2C8.104,2,4.935,5.17,4.935,9.066v5.869C4.935,18.83,8.104,22,12,22s7.065-3.17,7.065-7.065V9.066
		C19.065,5.17,15.896,2,12,2z M18.171,14.935c0,3.402-2.769,6.17-6.171,6.17s-6.17-2.768-6.17-6.17V9.066
		c0-3.403,2.768-6.171,6.17-6.171s6.171,2.768,6.171,6.171V14.935z"/>
	<path fill="#FFFFFF" d="M12,5.705c-0.91,0-1.65,0.74-1.65,1.649v3.179c0,0.91,0.74,1.65,1.65,1.65c0.909,0,1.649-0.74,1.649-1.65
		V7.354C13.649,6.445,12.909,5.705,12,5.705z M12.754,10.534c0,0.417-0.338,0.755-0.754,0.755s-0.755-0.338-0.755-0.755V7.354
		C11.245,6.938,11.584,6.6,12,6.6s0.754,0.338,0.754,0.754V10.534z"/>
</g>
</svg>
