<?xml version="1.0" encoding="utf-8"?>
<!-- Generator: Adobe Illustrator 16.0.0, SVG Export Plug-In . SVG Version: 6.00 Build 0)  -->
<!DOCTYPE svg PUBLIC "-//W3C//DTD SVG 1.1//EN" "http://www.w3.org/Graphics/SVG/1.1/DTD/svg11.dtd">
<svg version="1.1" id="Capa_1" xmlns="http://www.w3.org/2000/svg" xmlns:xlink="http://www.w3.org/1999/xlink" x="0px" y="0px"
	 width="24px" height="24px" viewBox="0 0 24 24" enable-background="new 0 0 24 24" xml:space="preserve">
<g>
	<path fill="#FFFFFF" d="M21.127,3.302c-0.902-0.486-1.91,0.451-2.5,1.006c-1.354,1.318-2.5,2.846-3.783,4.234
		c-1.424,1.527-2.743,3.056-4.201,4.547c-0.833,0.834-1.736,1.735-2.291,2.777c-1.25-1.215-2.326-2.533-3.715-3.609
		C3.631,11.492,1.965,10.938,2,12.777c0.068,2.396,2.187,4.964,3.748,6.597c0.66,0.693,1.527,1.422,2.534,1.457
		c1.216,0.069,2.464-1.389,3.193-2.188c1.284-1.389,2.325-2.95,3.505-4.373c1.526-1.875,3.089-3.715,4.582-5.624
		C20.502,7.466,23.451,4.552,21.127,3.302z"/>
</g>
</svg>
