<?xml version="1.0" encoding="utf-8"?>
<!-- Generator: Adobe Illustrator 16.0.0, SVG Export Plug-In . SVG Version: 6.00 Build 0)  -->
<!DOCTYPE svg PUBLIC "-//W3C//DTD SVG 1.1//EN" "http://www.w3.org/Graphics/SVG/1.1/DTD/svg11.dtd">
<svg version="1.1" id="Capa_1" xmlns="http://www.w3.org/2000/svg" xmlns:xlink="http://www.w3.org/1999/xlink" x="0px" y="0px"
	 width="24px" height="24px" viewBox="0 0 24 24" enable-background="new 0 0 24 24" xml:space="preserve">
<g>
	<g id="Menu_1_">
		<path fill="#FFFFFF" d="M2.625,6.821h18.75c0.346,0,0.625-0.28,0.625-0.625s-0.279-0.625-0.625-0.625H2.625
			C2.28,5.571,2,5.852,2,6.196S2.28,6.821,2.625,6.821z"/>
		<path fill="#FFFFFF" d="M21.375,11.374H2.625C2.28,11.374,2,11.654,2,12c0,0.345,0.28,0.625,0.625,0.625h18.75
			C21.721,12.625,22,12.345,22,12C22,11.654,21.721,11.374,21.375,11.374z"/>
		<path fill="#FFFFFF" d="M21.375,17.179h-12.5c-0.346,0-0.625,0.28-0.625,0.625s0.279,0.625,0.625,0.625h12.5
			c0.346,0,0.625-0.28,0.625-0.625S21.721,17.179,21.375,17.179z"/>
	</g>
</g>
</svg>
