<?xml version="1.0" encoding="utf-8"?>
<!-- Generator: Adobe Illustrator 16.0.0, SVG Export Plug-In . SVG Version: 6.00 Build 0)  -->
<!DOCTYPE svg PUBLIC "-//W3C//DTD SVG 1.1//EN" "http://www.w3.org/Graphics/SVG/1.1/DTD/svg11.dtd">
<svg version="1.1" id="圖層_4" xmlns="http://www.w3.org/2000/svg" xmlns:xlink="http://www.w3.org/1999/xlink" x="0px" y="0px"
	 width="24px" height="24px" viewBox="0 0 24 24" enable-background="new 0 0 24 24" xml:space="preserve">
<path fill="#FFFFFF" d="M21.229,6.313c-0.501-0.514-1.167-0.796-1.876-0.796H4.646c-0.71,0-1.376,0.282-1.875,0.797
	C2.274,6.826,2,7.504,2,8.223v7.553c0,0.722,0.274,1.4,0.771,1.91c0.498,0.515,1.165,0.797,1.875,0.797h14.706
	c0.71,0,1.376-0.282,1.874-0.796C21.726,17.178,22,16.498,22,15.775V8.223C22,7.503,21.726,6.825,21.229,6.313z M21.146,15.775
	c0,0.378-0.139,0.721-0.342,1.025l-4.828-6.131l4.72-3.637c0.279,0.335,0.45,0.744,0.45,1.189V15.775z M19.353,6.371
	c0.222,0,0.435,0.05,0.637,0.129l-7.954,6.13l-7.97-6.141c0.187-0.066,0.378-0.118,0.581-0.118H19.353z M2.854,8.223
	c0-0.459,0.177-0.884,0.473-1.225l4.766,3.671l-4.865,6.182c-0.224-0.315-0.373-0.677-0.373-1.075V8.223z M4.646,17.629
	c-0.279,0-0.54-0.084-0.783-0.207l4.904-6.232l2.973,2.291c0.077,0.061,0.169,0.089,0.261,0.089c0.012,0,0.022-0.007,0.034-0.008
	c0.012,0.001,0.022,0.008,0.033,0.008c0.092,0,0.184-0.028,0.261-0.089l2.971-2.289l4.881,6.198
	c-0.255,0.141-0.53,0.239-0.828,0.239H4.646z"/>
</svg>
