<?xml version="1.0" encoding="utf-8"?>
<!-- Generator: Adobe Illustrator 16.0.0, SVG Export Plug-In . SVG Version: 6.00 Build 0)  -->
<!DOCTYPE svg PUBLIC "-//W3C//DTD SVG 1.1//EN" "http://www.w3.org/Graphics/SVG/1.1/DTD/svg11.dtd">
<svg version="1.1" id="Capa_1" xmlns="http://www.w3.org/2000/svg" xmlns:xlink="http://www.w3.org/1999/xlink" x="0px" y="0px"
	 width="100px" height="100px" viewBox="206 206 100 100" enable-background="new 206 206 100 100" xml:space="preserve">
<g>
	<circle cx="217.914" cy="244.281" r="11.719"/>
	<path d="M279.261,228.929c0-7.951-5.616-13.944-13.064-13.944c-3.756,0-7.277,1.671-10.196,4.771
		c-2.919-3.101-6.44-4.771-10.196-4.771c-7.448,0-13.064,5.994-13.064,13.944c0,8.303,6.675,13.937,15.917,21.729
		c5.713,4.829,5.421,4.639,7.344,6.291c2.338-2.01,1.279-1.165,7.345-6.291C272.586,242.865,279.261,237.231,279.261,228.929
		L279.261,228.929z"/>
	<circle cx="294.086" cy="244.281" r="11.719"/>
	<path d="M297.211,261.859h-8.984c-7.35,0-13.615-4.445-16.241-10.904c-2.497,2.198-4.548,3.911-5.313,4.562
		c-1.207,1.021-2.514,2.138-3.826,3.266c8.805,15.298,24.623,14.671,25.381,14.919v23.314H306v-26.367
		C306,265.803,302.057,261.859,297.211,261.859z"/>
	<path d="M223.773,273.701c0.815-0.266,16.541,0.443,25.381-14.92c-1.313-1.127-6.577-5.57-9.14-7.826
		c-2.625,6.459-8.892,10.904-16.241,10.904h-8.984c-4.846,0-8.789,3.943-8.789,8.789v26.367h17.773V273.701z"/>
</g>
</svg>
