<?xml version="1.0" encoding="utf-8"?>
<!-- Generator: Adobe Illustrator 16.0.0, SVG Export Plug-In . SVG Version: 6.00 Build 0)  -->
<!DOCTYPE svg PUBLIC "-//W3C//DTD SVG 1.1//EN" "http://www.w3.org/Graphics/SVG/1.1/DTD/svg11.dtd">
<svg version="1.1" id="Capa_1" xmlns="http://www.w3.org/2000/svg" xmlns:xlink="http://www.w3.org/1999/xlink" x="0px" y="0px"
	 width="100px" height="100px" viewBox="-30 -30 100 100" enable-background="new -30 -30 100 100" xml:space="preserve">
<g>
	<path fill="#FFFFFF" d="M-7.368,2.871c5.563,0,10.089-4.527,10.089-10.091c0-5.565-4.526-10.092-10.089-10.092
		c-5.564,0-10.092,4.526-10.092,10.092C-17.46-1.656-12.932,2.871-7.368,2.871z"/>
	<path fill="#FFFFFF" d="M15.686-8.054c-1.091,0-2.13,0.413-2.926,1.161L8.859-3.22C8.088-2.496,6.647-1.339,5.774-0.746
		l-7.85,5.334h-11.751c-1.987,0-3.016,0.584-3.831,1.602l-5.115,6.39c-0.828,1.033-2.144,2.75-2.935,3.828l-3.465,4.726
		c-0.675,0.921-0.951,2.049-0.776,3.175c0.173,1.128,0.775,2.121,1.694,2.795c0.738,0.54,1.61,0.825,2.523,0.825
		c1.356,0,2.646-0.651,3.446-1.743l3.465-4.727c0.019-0.024,0.039-0.054,0.059-0.078l-0.733,8.187l-5.994,28.47
		c-0.248,1.177-0.023,2.378,0.635,3.386c0.657,1.009,1.666,1.699,2.843,1.946c0.307,0.063,0.62,0.098,0.933,0.098
		c2.114,0,3.965-1.504,4.402-3.574l5.609-26.644h1.461l0.801,8.991c0.097,1.079,0.146,2.979,0.104,4.063l-0.471,12.491
		c-0.046,1.201,0.379,2.349,1.196,3.232c0.818,0.879,1.93,1.392,3.132,1.436c0.059,0.005,0.116,0.005,0.173,0.005
		c2.429,0,4.404-1.904,4.496-4.334l0.472-12.488c0.055-1.46-0.002-3.745-0.133-5.202l-1.198-13.445
		c-0.003-0.039-0.011-0.073-0.016-0.109l1.304-14.557l10.32-7.013C11.808,5.48,13.625,4.022,14.712,3l3.901-3.672
		c1.715-1.615,1.797-4.323,0.183-6.037C17.993-7.563,16.859-8.054,15.686-8.054z"/>
	<path fill="#FFFFFF" d="M46.929-0.245c5.566,0,10.093-4.528,10.093-10.092c0-5.565-4.526-10.093-10.093-10.093
		c-5.562,0-10.088,4.528-10.088,10.093C36.841-4.773,41.367-0.245,46.929-0.245z"/>
	<path fill="#FFFFFF" d="M62.285,23.069c0.801,1.091,2.091,1.745,3.448,1.745c0.913,0,1.782-0.288,2.521-0.827
		c0.921-0.674,1.521-1.668,1.694-2.794c0.174-1.128-0.103-2.255-0.776-3.176l-3.467-4.725c-0.788-1.077-2.104-2.794-2.933-3.828
		l-5.117-6.391c-0.815-1.018-1.724-1.602-3.335-1.602c-0.039,0-12.683,0-12.683,0l-7.85-5.334C32.85-4.5,31.626-5.469,31.157-5.909
		l-1.235-1.164c-0.796-0.748-1.836-1.161-2.925-1.161c-1.174,0-2.31,0.489-3.11,1.344c-0.783,0.83-1.196,1.916-1.162,3.056
		c0.037,1.14,0.513,2.198,1.343,2.981l1.235,1.162c0.845,0.794,2.427,2.039,3.685,2.892l10.319,7.013l1.304,14.557
		c-0.005,0.037-0.015,0.073-0.015,0.107l-1.201,13.447c-0.176,1.973,0.242,4.731,0.991,6.565l3.579,8.758
		c0.696,1.701,2.332,2.8,4.17,2.8c0.584,0,1.157-0.114,1.702-0.334c1.113-0.457,1.982-1.318,2.448-2.427
		c0.464-1.109,0.469-2.335,0.015-3.448l-3.579-8.757c-0.207-0.511-0.405-1.81-0.356-2.356l0.804-8.994h1.46l2.136,10.14
		c0.396,1.875,1.563,3.472,3.203,4.38c0.942,0.524,2.021,0.801,3.118,0.801c0.781,0,1.553-0.137,2.292-0.408l4.715-1.729
		c2.332-0.854,3.533-3.444,2.679-5.776c-0.649-1.768-2.347-2.954-4.229-2.954c-0.527,0-1.05,0.093-1.548,0.276l-2.013,0.734
		l-1.926-9.146l-0.794-8.855c0.205,0.272,0.396,0.526,0.557,0.747L62.285,23.069z"/>
	<path fill="#FFFFFF" d="M25.044-14.5c0.122,0.03,0.244,0.045,0.361,0.045c0.654,0,1.248-0.44,1.416-1.102
		c0.469-1.851,1.646-4.662,2.64-5.125c0.729-0.34,1.047-1.211,0.705-1.942c-0.342-0.73-1.211-1.047-1.94-0.706
		c-2.645,1.233-3.992,6.092-4.236,7.053C23.789-15.494,24.263-14.7,25.044-14.5z"/>
	<path fill="#FFFFFF" d="M18.303-18.336c-0.73-0.34-1.6-0.025-1.942,0.706c-0.341,0.731-0.024,1.601,0.707,1.942
		c0.988,0.46,2.168,3.273,2.641,5.125c0.168,0.662,0.763,1.103,1.415,1.103c0.118,0,0.239-0.015,0.361-0.045
		c0.781-0.199,1.255-0.994,1.055-1.775C22.295-12.244,20.947-17.104,18.303-18.336z"/>
</g>
</svg>
